<svg version="1.1" xmlns="http://www.w3.org/2000/svg" xmlns:xlink="http://www.w3.org/1999/xlink" width="1016" height="425"><style xmlns="http://www.w3.org/1999/xhtml"></style><defs/><g transform="translate(0,0)"><g><rect fill="#FFFFFF" stroke="none" x="0" y="0" width="1016" height="425"/></g><g transform="translate(0,0) matrix(1,0,0,1,380,330)"><g><g transform="translate(0,0) scale(1,0.75)"><g><path fill="none" stroke="none" d="M 10 0 L 90 0 Q 100 0 100 10 L 100 90 Q 100 100 90 100 L 10 100 Q 0 100 0 90 L 0 10 Q 0 0 10 0 Z"/><g transform="scale(1,1.3333333333333333)"><path fill="#DDE6F1" stroke="none" d="M 10 0 L 90 0 Q 100 0 100 10 L 100 65 Q 100 75 90 75 L 10 75 Q 0 75 0 65 L 0 10 Q 0 0 10 0 Z"/><path fill="none" stroke="#0B599F" d="M 10 0 M 10 0 L 90 0 Q 100 0 100 10 L 100 65 Q 100 75 90 75 L 10 75 Q 0 75 0 65 L 0 10 Q 0 0 10 0 Z" stroke-miterlimit="10" stroke-width="2"/></g></g></g></g></g><g transform="matrix(1,0,0,1,390,361)"><g><g><rect fill="rgb(0,0,0)" stroke="none" x="0" y="0" width="80" height="14" fill-opacity="0"/></g></g><g><g><rect fill="rgb(0,0,0)" stroke="none" x="0" y="0" width="80" height="14" fill-opacity="0"/></g></g><g><g><rect fill="rgb(0,0,0)" stroke="none" x="17.998046875" y="0" width="46" height="14" fill-opacity="0"/></g></g><g><g><rect fill="rgb(0,0,0)" stroke="none" x="17.998046875" y="0" width="46" height="14" fill-opacity="0"/></g><text fill="rgb(8, 35, 63)" stroke="none" font-family="Arial" font-size="12px" font-style="normal" font-weight="bold" text-decoration="" line-height="14px" x="18" y="11">A</text><text fill="rgb(8, 35, 63)" stroke="none" font-family="Arial" font-size="12px" font-style="normal" font-weight="bold" text-decoration="" line-height="14px" x="27" y="11">c</text><text fill="rgb(8, 35, 63)" stroke="none" font-family="Arial" font-size="12px" font-style="normal" font-weight="bold" text-decoration="" line-height="14px" x="33" y="11">t</text><text fill="rgb(8, 35, 63)" stroke="none" font-family="Arial" font-size="12px" font-style="normal" font-weight="bold" text-decoration="" line-height="14px" x="37" y="11">i</text><text fill="rgb(8, 35, 63)" stroke="none" font-family="Arial" font-size="12px" font-style="normal" font-weight="bold" text-decoration="" line-height="14px" x="41" y="11">o</text><text fill="rgb(8, 35, 63)" stroke="none" font-family="Arial" font-size="12px" font-style="normal" font-weight="bold" text-decoration="" line-height="14px" x="48" y="11">n</text><text fill="rgb(8, 35, 63)" stroke="none" font-family="Arial" font-size="12px" font-style="normal" font-weight="bold" text-decoration="" line-height="14px" x="55" y="11">s</text></g></g><g transform="translate(0,0) matrix(1,0,0,1,550,330)"><g><g transform="translate(0,0) scale(1,0.75)"><g><path fill="none" stroke="none" d="M 10 0 L 90 0 Q 100 0 100 10 L 100 90 Q 100 100 90 100 L 10 100 Q 0 100 0 90 L 0 10 Q 0 0 10 0 Z"/><g transform="scale(1,1.3333333333333333)"><path fill="#b6d7a8" stroke="none" d="M 10 0 L 90 0 Q 100 0 100 10 L 100 65 Q 100 75 90 75 L 10 75 Q 0 75 0 65 L 0 10 Q 0 0 10 0 Z"/><path fill="none" stroke="#38761d" d="M 10 0 M 10 0 L 90 0 Q 100 0 100 10 L 100 65 Q 100 75 90 75 L 10 75 Q 0 75 0 65 L 0 10 Q 0 0 10 0 Z" stroke-miterlimit="10" stroke-width="2"/></g></g></g></g></g><g transform="matrix(1,0,0,1,560,361)"><g><g><rect fill="rgb(0,0,0)" stroke="none" x="0" y="0" width="80" height="14" fill-opacity="0"/></g></g><g><g><rect fill="rgb(0,0,0)" stroke="none" x="0" y="0" width="80" height="14" fill-opacity="0"/></g></g><g><g><rect fill="rgb(0,0,0)" stroke="none" x="15.3115234375" y="0" width="50" height="14" fill-opacity="0"/></g></g><g><g><rect fill="rgb(0,0,0)" stroke="none" x="15.3115234375" y="0" width="50" height="14" fill-opacity="0"/></g><text fill="rgb(8, 35, 63)" stroke="none" font-family="Arial" font-size="12px" font-style="normal" font-weight="bold" text-decoration="" line-height="14px" x="15" y="11">S</text><text fill="rgb(8, 35, 63)" stroke="none" font-family="Arial" font-size="12px" font-style="normal" font-weight="bold" text-decoration="" line-height="14px" x="23" y="11">e</text><text fill="rgb(8, 35, 63)" stroke="none" font-family="Arial" font-size="12px" font-style="normal" font-weight="bold" text-decoration="" line-height="14px" x="30" y="11">r</text><text fill="rgb(8, 35, 63)" stroke="none" font-family="Arial" font-size="12px" font-style="normal" font-weight="bold" text-decoration="" line-height="14px" x="35" y="11">v</text><text fill="rgb(8, 35, 63)" stroke="none" font-family="Arial" font-size="12px" font-style="normal" font-weight="bold" text-decoration="" line-height="14px" x="41" y="11">i</text><text fill="rgb(8, 35, 63)" stroke="none" font-family="Arial" font-size="12px" font-style="normal" font-weight="bold" text-decoration="" line-height="14px" x="45" y="11">c</text><text fill="rgb(8, 35, 63)" stroke="none" font-family="Arial" font-size="12px" font-style="normal" font-weight="bold" text-decoration="" line-height="14px" x="51" y="11">e</text><text fill="rgb(8, 35, 63)" stroke="none" font-family="Arial" font-size="12px" font-style="normal" font-weight="bold" text-decoration="" line-height="14px" x="58" y="11">s</text></g></g><g transform="translate(0,0) matrix(1,0,0,1,550,160)"><g><g transform="translate(0,0) scale(1,0.75)"><g><g transform="scale(1,1.3333333333333333)"><path fill="#FFFFFF" stroke="none" d="M 100 0 L 100 65.625 Q 100 75 50 75 Q 0 75 0 65.625 L 0 0 Q 0 -9.375 50 -9.375 Q 100 -9.375 100 0"/><path fill="none" stroke="#0B599F" d="M 100 0 M 100 0 L 100 65.625 Q 100 75 50 75 Q 0 75 0 65.625 L 0 0 Q 0 -9.375 50 -9.375 Q 100 -9.375 100 0" stroke-miterlimit="10" stroke-width="2"/></g></g><g><g transform="scale(1,1.3333333333333333)"><path fill="rgb(0,0,0)" stroke="none" d="M 0 0 Q 0 9.375 50 9.375 Q 100 9.375 100 0 M 0 4.6875 Q 0 14.0625 50 14.0625 Q 100 14.0625 100 4.6875 M 0 9.375 Q 0 18.75 50 18.75 Q 100 18.75 100 9.375" fill-opacity="0"/><path fill="none" stroke="#0B599F" d="M 0 0 M 0 0 Q 0 9.375 50 9.375 Q 100 9.375 100 0 M 0 4.6875 Q 0 14.0625 50 14.0625 Q 100 14.0625 100 4.6875 M 0 9.375 Q 0 18.75 50 18.75 Q 100 18.75 100 9.375" stroke-miterlimit="10"/></g></g></g></g></g><g transform="matrix(1,0,0,1,560,177)"><g><g><rect fill="rgb(0,0,0)" stroke="none" x="0" y="0" width="80" height="42" fill-opacity="0"/></g></g><g><g><rect fill="rgb(0,0,0)" stroke="none" x="0" y="0" width="80" height="14" fill-opacity="0"/></g></g><g><g><rect fill="rgb(0,0,0)" stroke="none" x="38.3330078125" y="0" width="4" height="14" fill-opacity="0"/></g></g><g><g><rect fill="rgb(0,0,0)" stroke="none" x="38.3330078125" y="0" width="4" height="14" fill-opacity="0"/></g></g><g><g><rect fill="rgb(0,0,0)" stroke="none" x="0" y="14" width="80" height="14" fill-opacity="0"/></g></g><g><g><rect fill="rgb(0,0,0)" stroke="none" x="16.322265625" y="14" width="48" height="14" fill-opacity="0"/></g></g><g><g><rect fill="rgb(0,0,0)" stroke="none" x="16.322265625" y="14" width="48" height="14" fill-opacity="0"/></g><text fill="rgb(7, 55, 99)" stroke="none" font-family="Arial" font-size="12px" font-style="normal" font-weight="bold" text-decoration="" line-height="14px" x="16" y="25">E</text><text fill="rgb(7, 55, 99)" stroke="none" font-family="Arial" font-size="12px" font-style="normal" font-weight="bold" text-decoration="" line-height="14px" x="24" y="25">x</text><text fill="rgb(7, 55, 99)" stroke="none" font-family="Arial" font-size="12px" font-style="normal" font-weight="bold" text-decoration="" line-height="14px" x="31" y="25">t</text><text fill="rgb(7, 55, 99)" stroke="none" font-family="Arial" font-size="12px" font-style="normal" font-weight="bold" text-decoration="" line-height="14px" x="35" y="25">e</text><text fill="rgb(7, 55, 99)" stroke="none" font-family="Arial" font-size="12px" font-style="normal" font-weight="bold" text-decoration="" line-height="14px" x="42" y="25">r</text><text fill="rgb(7, 55, 99)" stroke="none" font-family="Arial" font-size="12px" font-style="normal" font-weight="bold" text-decoration="" line-height="14px" x="46" y="25">n</text><text fill="rgb(7, 55, 99)" stroke="none" font-family="Arial" font-size="12px" font-style="normal" font-weight="bold" text-decoration="" line-height="14px" x="54" y="25">a</text><text fill="rgb(7, 55, 99)" stroke="none" font-family="Arial" font-size="12px" font-style="normal" font-weight="bold" text-decoration="" line-height="14px" x="60" y="25">l</text></g><g><g><rect fill="rgb(0,0,0)" stroke="none" x="0" y="28" width="80" height="14" fill-opacity="0"/></g></g><g><g><rect fill="rgb(0,0,0)" stroke="none" x="26.6611328125" y="28" width="28" height="14" fill-opacity="0"/></g></g><g><g><rect fill="rgb(0,0,0)" stroke="none" x="26.6611328125" y="28" width="28" height="14" fill-opacity="0"/></g><text fill="rgb(7, 55, 99)" stroke="none" font-family="Arial" font-size="12px" font-style="normal" font-weight="bold" text-decoration="" line-height="14px" x="27" y="39">A</text><text fill="rgb(7, 55, 99)" stroke="none" font-family="Arial" font-size="12px" font-style="normal" font-weight="bold" text-decoration="" line-height="14px" x="35" y="39">P</text><text fill="rgb(7, 55, 99)" stroke="none" font-family="Arial" font-size="12px" font-style="normal" font-weight="bold" text-decoration="" line-height="14px" x="43" y="39">I</text><text fill="rgb(7, 55, 99)" stroke="none" font-family="Arial" font-size="12px" font-style="normal" font-weight="bold" text-decoration="" line-height="14px" x="47" y="39">s</text></g></g><g transform="translate(0,0) matrix(1,0,0,1,490,355)"><g><g transform="translate(0,0) scale(0.5,0.25)"><g><g transform="scale(2,4)"><path fill="#FFFFFF" stroke="none" d="M 0 7.5 L 37.5 7.5 L 37.5 0 L 50 12.5 L 37.5 25 L 37.5 17.5 L 0 17.5 L 0 7.5 Z"/><path fill="none" stroke="#0B599F" d="M 0 7.5 M 0 7.5 L 37.5 7.5 L 37.5 0 L 50 12.5 L 37.5 25 L 37.5 17.5 L 0 17.5 L 0 7.5 Z" stroke-miterlimit="10" stroke-width="2"/></g></g></g></g></g><g transform="translate(0,0) matrix(1,0,0,1,720,330)"><g><g transform="translate(0,0) scale(1,0.75)"><g><path fill="none" stroke="none" d="M 10 0 L 90 0 Q 100 0 100 10 L 100 90 Q 100 100 90 100 L 10 100 Q 0 100 0 90 L 0 10 Q 0 0 10 0 Z"/><g transform="scale(1,1.3333333333333333)"><path fill="#DDE6F1" stroke="none" d="M 10 0 L 90 0 Q 100 0 100 10 L 100 65 Q 100 75 90 75 L 10 75 Q 0 75 0 65 L 0 10 Q 0 0 10 0 Z"/><path fill="none" stroke="#0B599F" d="M 10 0 M 10 0 L 90 0 Q 100 0 100 10 L 100 65 Q 100 75 90 75 L 10 75 Q 0 75 0 65 L 0 10 Q 0 0 10 0 Z" stroke-miterlimit="10" stroke-width="2"/></g></g></g></g></g><g transform="matrix(1,0,0,1,730,361)"><g><g><rect fill="rgb(0,0,0)" stroke="none" x="0" y="0" width="80" height="14" fill-opacity="0"/></g></g><g><g><rect fill="rgb(0,0,0)" stroke="none" x="0" y="0" width="80" height="14" fill-opacity="0"/></g></g><g><g><rect fill="rgb(0,0,0)" stroke="none" x="16.9931640625" y="0" width="48" height="14" fill-opacity="0"/></g></g><g><g><rect fill="rgb(0,0,0)" stroke="none" x="16.9931640625" y="0" width="48" height="14" fill-opacity="0"/></g><text fill="rgb(8, 35, 63)" stroke="none" font-family="Arial" font-size="12px" font-style="normal" font-weight="normal" text-decoration="" line-height="14px" x="17" y="11">S</text><text fill="rgb(8, 35, 63)" stroke="none" font-family="Arial" font-size="12px" font-style="normal" font-weight="normal" text-decoration="" line-height="14px" x="25" y="11">e</text><text fill="rgb(8, 35, 63)" stroke="none" font-family="Arial" font-size="12px" font-style="normal" font-weight="normal" text-decoration="" line-height="14px" x="32" y="11">r</text><text fill="rgb(8, 35, 63)" stroke="none" font-family="Arial" font-size="12px" font-style="normal" font-weight="normal" text-decoration="" line-height="14px" x="36" y="11">v</text><text fill="rgb(8, 35, 63)" stroke="none" font-family="Arial" font-size="12px" font-style="normal" font-weight="normal" text-decoration="" line-height="14px" x="42" y="11">i</text><text fill="rgb(8, 35, 63)" stroke="none" font-family="Arial" font-size="12px" font-style="normal" font-weight="normal" text-decoration="" line-height="14px" x="44" y="11">c</text><text fill="rgb(8, 35, 63)" stroke="none" font-family="Arial" font-size="12px" font-style="normal" font-weight="normal" text-decoration="" line-height="14px" x="50" y="11">e</text><text fill="rgb(8, 35, 63)" stroke="none" font-family="Arial" font-size="12px" font-style="normal" font-weight="normal" text-decoration="" line-height="14px" x="57" y="11">s</text></g></g><g transform="translate(0,0) matrix(1,0,0,1,660,355)"><g><g transform="translate(0,0) scale(0.5,0.25)"><g><g transform="scale(2,4)"><path fill="#FFFFFF" stroke="none" d="M 0 7.5 L 37.5 7.5 L 37.5 0 L 50 12.5 L 37.5 25 L 37.5 17.5 L 0 17.5 L 0 7.5 Z"/><path fill="none" stroke="#0B599F" d="M 0 7.5 M 0 7.5 L 37.5 7.5 L 37.5 0 L 50 12.5 L 37.5 25 L 37.5 17.5 L 0 17.5 L 0 7.5 Z" stroke-miterlimit="10" stroke-width="2"/></g></g></g></g></g><g transform="translate(0,0) matrix(1,0,0,1,720,330)"><g><g transform="translate(0,0) scale(1,0.75)"><g><path fill="none" stroke="none" d="M 10 0 L 90 0 Q 100 0 100 10 L 100 90 Q 100 100 90 100 L 10 100 Q 0 100 0 90 L 0 10 Q 0 0 10 0 Z"/><g transform="scale(1,1.3333333333333333)"><path fill="#f9cb9c" stroke="none" d="M 10 0 L 90 0 Q 100 0 100 10 L 100 65 Q 100 75 90 75 L 10 75 Q 0 75 0 65 L 0 10 Q 0 0 10 0 Z"/><path fill="none" stroke="#e69138" d="M 10 0 M 10 0 L 90 0 Q 100 0 100 10 L 100 65 Q 100 75 90 75 L 10 75 Q 0 75 0 65 L 0 10 Q 0 0 10 0 Z" stroke-miterlimit="10" stroke-width="2"/></g></g></g></g></g><g transform="matrix(1,0,0,1,730,361)"><g><g><rect fill="rgb(0,0,0)" stroke="none" x="0" y="0" width="80" height="14" fill-opacity="0"/></g></g><g><g><rect fill="rgb(0,0,0)" stroke="none" x="0" y="0" width="80" height="14" fill-opacity="0"/></g></g><g><g><rect fill="rgb(0,0,0)" stroke="none" x="21.326171875" y="0" width="38" height="14" fill-opacity="0"/></g></g><g><g><rect fill="rgb(0,0,0)" stroke="none" x="21.326171875" y="0" width="38" height="14" fill-opacity="0"/></g><text fill="rgb(8, 35, 63)" stroke="none" font-family="Arial" font-size="12px" font-style="normal" font-weight="bold" text-decoration="" line-height="14px" x="21" y="11">S</text><text fill="rgb(8, 35, 63)" stroke="none" font-family="Arial" font-size="12px" font-style="normal" font-weight="bold" text-decoration="" line-height="14px" x="29" y="11">t</text><text fill="rgb(8, 35, 63)" stroke="none" font-family="Arial" font-size="12px" font-style="normal" font-weight="bold" text-decoration="" line-height="14px" x="33" y="11">o</text><text fill="rgb(8, 35, 63)" stroke="none" font-family="Arial" font-size="12px" font-style="normal" font-weight="bold" text-decoration="" line-height="14px" x="41" y="11">r</text><text fill="rgb(8, 35, 63)" stroke="none" font-family="Arial" font-size="12px" font-style="normal" font-weight="bold" text-decoration="" line-height="14px" x="45" y="11">e</text><text fill="rgb(8, 35, 63)" stroke="none" font-family="Arial" font-size="12px" font-style="normal" font-weight="bold" text-decoration="" line-height="14px" x="52" y="11">s</text></g></g><g transform="translate(0,0) matrix(1,0,0,1,890,330)"><g><g transform="translate(0,0) scale(1,0.75)"><g><path fill="none" stroke="none" d="M 10 0 L 90 0 Q 100 0 100 10 L 100 90 Q 100 100 90 100 L 10 100 Q 0 100 0 90 L 0 10 Q 0 0 10 0 Z"/><g transform="scale(1,1.3333333333333333)"><path fill="#dd7e6b" stroke="none" d="M 10 0 L 90 0 Q 100 0 100 10 L 100 65 Q 100 75 90 75 L 10 75 Q 0 75 0 65 L 0 10 Q 0 0 10 0 Z"/><path fill="none" stroke="#a61c00" d="M 10 0 M 10 0 L 90 0 Q 100 0 100 10 L 100 65 Q 100 75 90 75 L 10 75 Q 0 75 0 65 L 0 10 Q 0 0 10 0 Z" stroke-miterlimit="10" stroke-width="2"/></g></g></g></g></g><g transform="matrix(1,0,0,1,900,361)"><g><g><rect fill="rgb(0,0,0)" stroke="none" x="0" y="0" width="80" height="14" fill-opacity="0"/></g></g><g><g><rect fill="rgb(0,0,0)" stroke="none" x="0" y="0" width="80" height="14" fill-opacity="0"/></g></g><g><g><rect fill="rgb(0,0,0)" stroke="none" x="22.990234375" y="0" width="36" height="14" fill-opacity="0"/></g></g><g><g><rect fill="rgb(0,0,0)" stroke="none" x="22.990234375" y="0" width="36" height="14" fill-opacity="0"/></g><text fill="rgb(8, 35, 63)" stroke="none" font-family="Arial" font-size="12px" font-style="normal" font-weight="bold" text-decoration="" line-height="14px" x="23" y="11">V</text><text fill="rgb(8, 35, 63)" stroke="none" font-family="Arial" font-size="12px" font-style="normal" font-weight="bold" text-decoration="" line-height="14px" x="31" y="11">i</text><text fill="rgb(8, 35, 63)" stroke="none" font-family="Arial" font-size="12px" font-style="normal" font-weight="bold" text-decoration="" line-height="14px" x="34" y="11">e</text><text fill="rgb(8, 35, 63)" stroke="none" font-family="Arial" font-size="12px" font-style="normal" font-weight="bold" text-decoration="" line-height="14px" x="41" y="11">w</text><text fill="rgb(8, 35, 63)" stroke="none" font-family="Arial" font-size="12px" font-style="normal" font-weight="bold" text-decoration="" line-height="14px" x="50" y="11">s</text></g></g><g transform="translate(0,0) matrix(1,0,0,1,830,355)"><g><g transform="translate(0,0) scale(0.5,0.25)"><g><g transform="scale(2,4)"><path fill="#FFFFFF" stroke="none" d="M 0 7.5 L 37.5 7.5 L 37.5 0 L 50 12.5 L 37.5 25 L 37.5 17.5 L 0 17.5 L 0 7.5 Z"/><path fill="none" stroke="#0B599F" d="M 0 7.5 M 0 7.5 L 37.5 7.5 L 37.5 0 L 50 12.5 L 37.5 25 L 37.5 17.5 L 0 17.5 L 0 7.5 Z" stroke-miterlimit="10" stroke-width="2"/></g></g></g></g></g><g transform="translate(0,0) matrix(-1.8369701987210297e-16,-1,1,-1.8369701987210297e-16,575,300)"><g><g transform="translate(0,0) scale(0.5,0.25)"><g><g transform="scale(2,4)"><path fill="#FFFFFF" stroke="none" d="M 0 7.5 L 37.5 7.5 L 37.5 0 L 50 12.5 L 37.5 25 L 37.5 17.5 L 0 17.5 L 0 7.5 Z"/><path fill="none" stroke="#0B599F" d="M 0 7.5 M 0 7.5 L 37.5 7.5 L 37.5 0 L 50 12.5 L 37.5 25 L 37.5 17.5 L 0 17.5 L 0 7.5 Z" stroke-miterlimit="10" stroke-width="2"/></g></g></g></g></g><g transform="translate(0,0) matrix(6.123233995736766e-17,1,-1,6.123233995736766e-17,625,263)"><g><g transform="translate(0,0) scale(0.5,0.25)"><g><g transform="scale(2,4)"><path fill="#FFFFFF" stroke="none" d="M 0 7.5 L 37.5 7.5 L 37.5 0 L 50 12.5 L 37.5 25 L 37.5 17.5 L 0 17.5 L 0 7.5 Z"/><path fill="none" stroke="#0B599F" d="M 0 7.5 M 0 7.5 L 37.5 7.5 L 37.5 0 L 50 12.5 L 37.5 25 L 37.5 17.5 L 0 17.5 L 0 7.5 Z" stroke-miterlimit="10" stroke-width="2"/></g></g></g></g></g></g></svg>